<svg width="24" height="24" viewBox="0 0 24 24" fill="none" xmlns="http://www.w3.org/2000/svg">
<path d="M8.4917 9.29236C9.31989 11.8249 9.63357 16.3425 12.0553 16.3425C12.2394 16.3425 12.426 16.3245 12.6129 16.2889C10.4117 15.7757 10.1507 11.3072 8.80726 8.99292C8.7002 9.09074 8.595 9.19057 8.4917 9.29236Z" fill="url(#paint0_linear_244_3418)"/>
<path d="M8.80713 8.99283C10.1506 11.307 10.4116 15.7755 12.6128 16.2888C12.7895 16.2555 12.9633 16.2085 13.1328 16.1484C11.1567 15.1801 10.6107 10.841 9.085 8.75208C8.99275 8.82895 8.89994 8.90939 8.80713 8.99283Z" fill="url(#paint1_linear_244_3418)"/>
<path d="M10.7425 7.61683C10.5588 7.61683 10.3718 7.63483 10.1843 7.67045C9.69457 7.76289 9.19657 7.97383 8.69482 8.29314C8.8317 8.42852 8.96239 8.5832 9.08501 8.75214C9.59557 8.32858 10.1026 8.01564 10.6075 7.82739C10.7919 7.75846 10.9819 7.70564 11.1754 7.66952C11.0339 7.63408 10.8884 7.61639 10.7425 7.61683Z" fill="#14559A"/>
<path d="M14.6755 15.2562C14.886 15.088 15.0887 14.9103 15.283 14.7237C14.4415 12.2031 14.1402 7.62061 11.7015 7.62061C11.5272 7.62061 11.3513 7.63692 11.1758 7.66936C13.3971 8.22192 13.6817 13.0547 14.6755 15.2562Z" fill="url(#paint2_linear_244_3418)"/>
<path d="M11.1755 7.66958C11.0338 7.63398 10.8883 7.61622 10.7422 7.61671L11.7011 7.62027C11.5269 7.62027 11.351 7.6364 11.1755 7.66958Z" fill="#3092C4"/>
<path d="M14.6326 15.7914C14.5356 15.6976 14.4438 15.5984 14.3577 15.4944C13.9475 15.7848 13.5387 16.0051 13.1328 16.1486C13.2774 16.2191 13.4287 16.2716 13.5896 16.304C13.7141 16.3295 13.8433 16.3426 13.9786 16.3426C14.4344 16.3426 14.7948 16.2886 15.1012 16.1416C14.9324 16.0501 14.7776 15.932 14.6326 15.7914Z" fill="#1969BC"/>
<path d="M10.6074 7.82775C12.597 8.86837 12.77 13.581 14.3576 15.4944C14.4641 15.4194 14.5695 15.3399 14.6747 15.2561C13.6809 13.0547 13.3969 8.22131 11.1759 7.66931C10.9864 7.70475 10.7972 7.75725 10.6074 7.82775Z" fill="url(#paint3_linear_244_3418)"/>
<path d="M9.08496 8.75213C10.6106 10.8411 11.1566 15.1804 13.1327 16.1486C13.5388 16.0052 13.9476 15.7851 14.3576 15.4944C12.7701 13.581 12.597 8.86857 10.6075 7.82776C10.1025 8.01563 9.59552 8.32857 9.08496 8.75213Z" fill="url(#paint4_linear_244_3418)"/>
<path d="M7.51532 9.23146C7.27625 9.77202 7.03194 10.4828 6.73682 11.4104C7.32388 10.583 7.90925 9.87027 8.49125 9.29258C8.41781 9.06246 8.33129 8.83672 8.23213 8.61646C7.98216 8.80824 7.74287 9.01355 7.51532 9.23146Z" fill="url(#paint5_linear_244_3418)"/>
<path d="M8.4443 8.46021C8.37417 8.51046 8.30348 8.56183 8.23242 8.61621C8.32523 8.81871 8.41111 9.04596 8.49117 9.29252C8.59467 9.19088 8.69994 9.09105 8.80692 8.99308C8.69991 8.80641 8.57867 8.62826 8.4443 8.46021Z" fill="#2B74B1"/>
<path d="M8.69502 8.29297C8.61159 8.34584 8.52852 8.40172 8.44434 8.46003C8.57465 8.62034 8.69427 8.79941 8.80734 8.99328C8.90015 8.90928 8.99277 8.82847 9.08521 8.75197C8.96259 8.58322 8.83209 8.42834 8.69502 8.29297Z" fill="#125A9E"/>
<path d="M22.266 7.42391C21.1408 11.7634 18.7905 15.249 16.8203 16.1277H16.8163L16.71 16.1732L16.6971 16.1783L16.6669 16.1899L16.6534 16.1955L16.6041 16.213L16.5838 16.2201L16.5593 16.2282L16.5356 16.2364L16.5146 16.2435L16.4726 16.2563L16.4546 16.261L16.4263 16.2687L16.407 16.2739L16.3761 16.282L16.3384 16.2902C16.4274 16.323 16.5203 16.3397 16.6202 16.3397C18.4886 16.3397 20.3726 12.9913 23.4898 7.42297H22.2658L22.266 7.42391Z" fill="url(#paint6_linear_244_3418)"/>
<path d="M6.33119 7.79311L6.33475 7.79011L6.33907 7.78729H6.3415L6.37169 7.77567L6.37769 7.77267L6.38557 7.76948L6.418 7.75786H6.41969L6.4915 7.73273L6.50219 7.72992L6.53294 7.72073L6.547 7.71623L6.57794 7.70704L6.58975 7.70386L6.6925 7.67723L6.70657 7.67404L6.73657 7.66823L6.75119 7.66373L6.78138 7.65811H6.7885L6.85094 7.64648H6.86332L6.89219 7.64142L6.9085 7.63861L6.93607 7.63448L6.95125 7.63148L7.01838 7.62548C6.95226 7.61903 6.88587 7.61566 6.81944 7.61536C4.71513 7.61536 1.816 11.5195 0.510254 16.5756H0.762066C1.15246 15.8777 1.53138 15.1735 1.89869 14.4632C2.8135 10.882 4.67632 8.43961 6.33119 7.79254" fill="url(#paint7_linear_244_3418)"/>
<path d="M7.51562 9.23139C7.74327 9.01352 7.98256 8.80815 8.23244 8.6162C8.18162 8.50307 8.1246 8.39284 8.06162 8.28601C7.86925 8.51964 7.69338 8.82789 7.51562 9.23139Z" fill="#0D82CA"/>
<path d="M7.68825 7.82253C7.82568 7.93765 7.94887 8.09628 8.06137 8.28621C8.09681 8.24271 8.13281 8.2024 8.17012 8.16453C8.01906 8.02157 7.84771 7.90171 7.66162 7.80884L7.68412 7.81953L7.68825 7.82253Z" fill="#0D82CA"/>
<path d="M1.89893 14.4634C3.81761 10.7661 4.72661 8.4261 6.33143 7.79272C4.67674 8.44035 2.81355 10.8825 1.89893 14.4634Z" fill="url(#paint8_linear_244_3418)"/>
<path d="M8.17027 8.16455C8.13296 8.2028 8.09734 8.24274 8.06152 8.28624C8.1219 8.38711 8.17796 8.49699 8.23271 8.61624C8.30359 8.56186 8.37446 8.51068 8.4444 8.46024C8.36005 8.35539 8.26845 8.25658 8.17027 8.16455Z" fill="#127BCA"/>
<path d="M2.76996 16.559L2.73509 16.5631H2.72852L2.6989 16.5661H2.69402L2.62352 16.5708H2.61621C4.55796 16.5164 5.44577 15.5443 5.88621 14.1339C6.2209 13.0649 6.49596 12.1642 6.7369 11.4086C5.92352 12.5534 5.1064 13.9181 4.28496 15.4471C3.88896 16.184 3.28652 16.4919 2.76996 16.5575" fill="url(#paint9_linear_244_3418)"/>
<path d="M2.76972 16.5583C3.28628 16.4925 3.88872 16.185 4.28472 15.4478C5.10616 13.9195 5.92366 12.5545 6.73628 11.4094C7.03197 10.4815 7.27591 9.77122 7.51516 9.23047C5.89534 10.7723 4.26934 13.336 2.76953 16.5574" fill="url(#paint10_linear_244_3418)"/>
<path d="M1.89902 14.4635C1.53172 15.1738 1.15273 15.878 0.762207 16.5759H1.49421C1.58665 15.8644 1.72177 15.1591 1.89883 14.4639" fill="#05A1E6"/>
<path d="M6.95122 7.633L6.93566 7.636L6.90828 7.63993L6.89216 7.64275L6.86328 7.64781L6.85091 7.65081L6.78847 7.66168H6.78134L6.75097 7.66768L6.73578 7.67181L6.70634 7.67762L6.69247 7.681L6.58953 7.70762L6.57772 7.711L6.54659 7.72018L6.53253 7.72412L6.50197 7.73331L6.49072 7.73631L6.41928 7.76143L6.38684 7.77268L6.37334 7.77831L6.34316 7.78956L6.33303 7.79443C4.72841 8.42762 3.81941 10.7676 1.90072 14.4649C1.72328 15.1601 1.58816 15.8654 1.49609 16.5769H1.59866L2.30272 16.5739H2.62578L2.69609 16.5692H2.70059L2.73022 16.5662H2.73716L2.77203 16.5621C4.27203 13.3405 5.89803 10.777 7.51766 9.23518C7.69578 8.83168 7.87147 8.52343 8.06347 8.29018C7.95097 8.10025 7.82797 7.94125 7.69072 7.82593L7.68678 7.82293L7.66391 7.81187L7.64122 7.80043L7.61928 7.78975L7.59322 7.77887L7.57297 7.77006L7.53041 7.75225L7.51222 7.7455L7.48053 7.73275L7.46347 7.72712L7.41941 7.71193H7.41584L7.36484 7.6975L7.35341 7.69393L7.31047 7.68193L7.30053 7.67912C7.26527 7.66999 7.22968 7.66217 7.19384 7.65568L7.18278 7.65268L7.13647 7.64518L7.12728 7.64237L7.07253 7.63506H7.06297L7.02059 7.63037L6.95347 7.63656" fill="url(#paint11_linear_244_3418)"/>
<path d="M17.8709 9.82634C17.5015 11.0089 17.2028 11.9845 16.9424 12.7872C17.9554 11.3931 18.9533 9.63959 19.9034 7.61609C18.7947 7.96428 18.2037 8.76115 17.8709 9.82634Z" fill="url(#paint12_linear_244_3418)"/>
<path d="M16.9746 16.0539C16.9231 16.0801 16.8711 16.1051 16.8203 16.1278C18.7906 15.249 21.1411 11.7633 22.2661 7.42383H22.0381C19.4528 12.0421 18.6214 15.1338 16.9746 16.0539Z" fill="url(#paint13_linear_244_3418)"/>
<path d="M15.688 15.666C16.1168 15.1427 16.4657 14.2532 16.9425 12.7871C16.3926 13.5425 15.8391 14.1919 15.285 14.7214L15.2822 14.726C15.4032 15.0881 15.5357 15.4078 15.6869 15.6658" fill="#079AE1"/>
<path d="M15.6878 15.666C15.5419 15.8441 15.3872 15.9797 15.2154 16.0802C15.1779 16.1021 15.1397 16.1228 15.1011 16.1415C15.2875 16.2426 15.4915 16.3069 15.7022 16.3311L15.8004 16.3397H15.8063L15.8535 16.3427H16.0138L16.032 16.3397L16.0674 16.3367H16.0847L16.1231 16.3326H16.1263L16.1381 16.3298L16.1792 16.3234H16.1912L16.2373 16.3157H16.2448L16.3369 16.2962C16.0824 16.2032 15.8696 15.9836 15.6864 15.6711" fill="#1969BC"/>
<path d="M12.0552 16.3427C12.2393 16.3427 12.4257 16.3247 12.6126 16.2887C12.7893 16.2557 12.9632 16.2088 13.1326 16.1486C13.2771 16.2191 13.4286 16.2716 13.5891 16.3044C13.7136 16.3297 13.843 16.3429 13.9786 16.3429H12.0552V16.3427ZM13.9786 16.3427C14.434 16.3427 14.7947 16.2887 15.1009 16.1415C15.2873 16.2426 15.4914 16.307 15.7021 16.3312L15.8003 16.3397H15.8061L15.8534 16.3427H15.91H13.9786Z" fill="#1E5CB3"/>
<path d="M15.9102 16.3427H16.0153L16.0335 16.3397L16.0693 16.3367H16.0866L16.1248 16.3326H16.128L16.1397 16.3296L16.1807 16.3234L16.1933 16.3206L16.2396 16.3131H16.2469L16.339 16.2936C16.428 16.3264 16.5208 16.3431 16.6208 16.3431L15.9105 16.3461L15.9102 16.3427Z" fill="#1D60B5"/>
<path d="M15.2833 14.7263V14.7233C15.0891 14.9099 14.8863 15.0876 14.6758 15.2558C14.5723 15.3382 14.4665 15.4177 14.3584 15.4941C14.4476 15.6006 14.5382 15.7003 14.6336 15.7913C14.7784 15.9317 14.9331 16.05 15.102 16.1413C15.1405 16.1224 15.1789 16.1018 15.2162 16.08C15.3883 15.9795 15.5426 15.8438 15.6887 15.6658C15.5376 15.4078 15.405 15.088 15.2843 14.7261" fill="#175FAB"/>
<path d="M21.3158 7.42383H20.1681L19.9863 7.43264L19.9017 7.61377C18.9515 9.63745 17.954 11.391 16.9409 12.785C16.4646 14.2509 16.1151 15.1406 15.6865 15.6637C15.8697 15.9765 16.0829 16.1962 16.3364 16.2894L16.3563 16.2851H16.3604L16.3745 16.2821L16.4063 16.2742L16.4253 16.2688L16.4536 16.2615L16.4712 16.2564L16.5136 16.2436L16.5346 16.2365L16.5582 16.2279L16.5826 16.2202L16.6025 16.2127L16.652 16.1953L16.6656 16.1902L16.696 16.1784L16.7088 16.1737L16.8153 16.1281H16.819C16.8698 16.1058 16.9216 16.0805 16.973 16.0543C18.6201 15.134 19.4517 12.0425 22.037 7.42439H21.3149L21.3158 7.42383Z" fill="url(#paint14_linear_244_3418)"/>
<path d="M7.01855 7.62695L7.03037 7.62995L7.06037 7.63314H7.07049L7.12524 7.64026L7.13443 7.64326L7.18056 7.65095L7.19218 7.65376L7.29849 7.67739L7.30824 7.68039L7.35099 7.69239L7.36281 7.69595L7.41362 7.71039L7.41756 7.71339L7.46199 7.72857L7.47887 7.73401L7.51074 7.74695L7.52874 7.75332L7.57112 7.77095L7.59174 7.77976L7.61724 7.79082L7.63974 7.80151L7.66206 7.81314C7.84562 7.90314 8.01437 8.02332 8.17074 8.16901C8.22849 8.10845 8.28849 8.05407 8.35112 8.00514C8.00931 7.7627 7.62174 7.62451 7.17531 7.62451C7.12356 7.62451 7.0718 7.62751 7.0193 7.63145" fill="#7DCBEC"/>
<path d="M8.16992 8.16449C8.26573 8.25355 8.35742 8.35292 8.44405 8.46017C8.52805 8.40186 8.6113 8.34561 8.69473 8.29311C8.58834 8.18596 8.47298 8.08811 8.34992 8.00061C8.28748 8.04936 8.22767 8.10411 8.16992 8.16449Z" fill="#5EC5ED"/>
<path d="M6.96886 7.63908L7.12496 7.63247C7.57171 7.63247 7.95889 7.77064 8.30057 8.01294C8.66119 7.72804 9.09746 7.62868 9.70322 7.62868H6.77002L6.96886 7.63908Z" fill="url(#paint15_linear_244_3418)"/>
<path d="M9.70343 7.62868C9.09767 7.62868 8.66234 7.72804 8.30078 8.01293C8.42004 8.09717 8.53553 8.19563 8.64532 8.30542C9.14791 7.98645 9.6448 7.77441 10.1351 7.6826C10.3225 7.64758 10.5089 7.6296 10.6926 7.6296H9.70343V7.62868Z" fill="url(#paint16_linear_244_3418)"/>
<path d="M16.9421 12.7879C17.2029 11.9847 17.5008 11.0095 17.871 9.82656C18.2042 8.76081 18.7944 7.96393 19.9025 7.61631L19.988 7.43518C18.1813 7.54337 17.3368 8.46249 16.9121 9.82356C16.1688 12.1997 15.7187 13.7401 15.2852 14.7216C15.8387 14.1923 16.3922 13.5426 16.9421 12.7879Z" fill="url(#paint17_linear_244_3418)"/>
<defs>
<linearGradient id="paint0_linear_244_3418" x1="10.5934" y1="7.557" x2="10.5934" y2="18.5345" gradientUnits="userSpaceOnUse">
<stop stop-color="#0994DC"/>
<stop offset="0.35" stop-color="#66CEF5"/>
<stop offset="0.846" stop-color="#127BCA"/>
<stop offset="1" stop-color="#127BCA"/>
</linearGradient>
<linearGradient id="paint1_linear_244_3418" x1="11.0066" y1="7.29285" x2="11.0066" y2="18.5213" gradientUnits="userSpaceOnUse">
<stop stop-color="#0E76BC"/>
<stop offset="0.36" stop-color="#36AEE8"/>
<stop offset="0.846" stop-color="#00ADEF"/>
<stop offset="1" stop-color="#00ADEF"/>
</linearGradient>
<linearGradient id="paint2_linear_244_3418" x1="13.2287" y1="16.076" x2="13.2287" y2="7.14174" gradientUnits="userSpaceOnUse">
<stop stop-color="#1C63B7"/>
<stop offset="0.5" stop-color="#33BDF2"/>
<stop offset="1" stop-color="#33BDF2" stop-opacity="0.42"/>
</linearGradient>
<linearGradient id="paint3_linear_244_3418" x1="12.6246" y1="6.11983" x2="12.6246" y2="17.8077" gradientUnits="userSpaceOnUse">
<stop stop-color="#166AB8"/>
<stop offset="0.4" stop-color="#36AEE8"/>
<stop offset="0.846" stop-color="#0798DD"/>
<stop offset="1" stop-color="#0798DD"/>
</linearGradient>
<linearGradient id="paint4_linear_244_3418" x1="11.7635" y1="6.2111" x2="11.7635" y2="18.6396" gradientUnits="userSpaceOnUse">
<stop stop-color="#124379"/>
<stop offset="0.39" stop-color="#1487CB"/>
<stop offset="0.78" stop-color="#165197"/>
<stop offset="1" stop-color="#165197"/>
</linearGradient>
<linearGradient id="paint5_linear_244_3418" x1="6.64255" y1="9.88059" x2="8.39681" y2="9.88059" gradientUnits="userSpaceOnUse">
<stop stop-color="#33BDF2" stop-opacity="0.698"/>
<stop offset="1" stop-color="#1DACD8"/>
</linearGradient>
<linearGradient id="paint6_linear_244_3418" x1="19.9276" y1="15.8438" x2="19.9276" y2="7.14057" gradientUnits="userSpaceOnUse">
<stop stop-color="#136AB4"/>
<stop offset="0.6" stop-color="#59CAF5" stop-opacity="0.549"/>
<stop offset="1" stop-color="#59CAF5" stop-opacity="0.235"/>
</linearGradient>
<linearGradient id="paint7_linear_244_3418" x1="0.417025" y1="11.9619" x2="6.92451" y2="11.9619" gradientUnits="userSpaceOnUse">
<stop stop-color="#05A1E6" stop-opacity="0.247"/>
<stop offset="1" stop-color="#05A1E6"/>
</linearGradient>
<linearGradient id="paint8_linear_244_3418" x1="4.14995" y1="16.0683" x2="4.14995" y2="7.1569" gradientUnits="userSpaceOnUse">
<stop stop-color="#318ED5"/>
<stop offset="1" stop-color="#38A7E4"/>
</linearGradient>
<linearGradient id="paint9_linear_244_3418" x1="4.63022" y1="16.1156" x2="4.63022" y2="7.43101" gradientUnits="userSpaceOnUse">
<stop stop-color="#05A1E6"/>
<stop offset="1" stop-color="#05A1E6" stop-opacity="0.549"/>
</linearGradient>
<linearGradient id="paint10_linear_244_3418" x1="5.1745" y1="16.5698" x2="5.1745" y2="9.23118" gradientUnits="userSpaceOnUse">
<stop stop-color="#1959A6"/>
<stop offset="0.5" stop-color="#05A1E6"/>
<stop offset="0.918" stop-color="#7EC5EA"/>
<stop offset="1" stop-color="#7EC5EA"/>
</linearGradient>
<linearGradient id="paint11_linear_244_3418" x1="5.39494" y1="16.084" x2="3.99548" y2="8.14723" gradientUnits="userSpaceOnUse">
<stop stop-color="#165096"/>
<stop offset="1" stop-color="#0D82CA"/>
</linearGradient>
<linearGradient id="paint12_linear_244_3418" x1="18.3775" y1="11.5818" x2="18.3775" y2="7.43405" gradientUnits="userSpaceOnUse">
<stop stop-color="#05A1E6"/>
<stop offset="0.874" stop-color="#0495D6"/>
<stop offset="1" stop-color="#0495D6"/>
</linearGradient>
<linearGradient id="paint13_linear_244_3418" x1="20.3994" y1="7.06683" x2="18.713" y2="16.6312" gradientUnits="userSpaceOnUse">
<stop stop-color="#38A7E4" stop-opacity="0.329"/>
<stop offset="0.962" stop-color="#0E88D3"/>
<stop offset="1" stop-color="#0E88D3"/>
</linearGradient>
<linearGradient id="paint14_linear_244_3418" x1="18.8073" y1="7.40818" x2="18.8073" y2="16.4568" gradientUnits="userSpaceOnUse">
<stop stop-color="#168CD4"/>
<stop offset="0.5" stop-color="#1C87CC"/>
<stop offset="1" stop-color="#154B8D"/>
</linearGradient>
<linearGradient id="paint15_linear_244_3418" x1="6.56934" y1="6.52528" x2="17.0905" y2="10.8893" gradientUnits="userSpaceOnUse">
<stop stop-color="#97D6EE"/>
<stop offset="0.703" stop-color="#55C1EA"/>
<stop offset="1" stop-color="#55C1EA"/>
</linearGradient>
<linearGradient id="paint16_linear_244_3418" x1="9.42988" y1="8.99512" x2="17.7398" y2="5.22821" gradientUnits="userSpaceOnUse">
<stop stop-color="#7ACCEC"/>
<stop offset="1" stop-color="#3FB7ED"/>
</linearGradient>
<linearGradient id="paint17_linear_244_3418" x1="17.5726" y1="7.90029" x2="17.5726" y2="16.7508" gradientUnits="userSpaceOnUse">
<stop stop-color="#1DA7E7"/>
<stop offset="1" stop-color="#37ABE7" stop-opacity="0"/>
</linearGradient>
</defs>
</svg>
