<svg width="24" height="24" viewBox="0 0 24 24" fill="none" xmlns="http://www.w3.org/2000/svg">
<path d="M8.92816 18.3975C5.32966 19.4029 11.1176 21.4799 15.6997 19.5167C14.9492 19.225 14.4109 18.8884 14.4109 18.8884C12.3677 19.2747 11.4199 19.305 9.5651 19.0932C8.03435 18.9179 8.92816 18.3975 8.92816 18.3975ZM15.1511 16.4363C12.4429 16.9574 10.8785 16.9407 8.89722 16.7363C7.36516 16.5779 8.3681 15.8354 8.3681 15.8354C4.40491 17.1509 10.5744 18.6435 16.1135 17.0234C15.5248 16.816 15.1511 16.4363 15.1511 16.4363ZM17.2734 5.07848C17.2736 5.07848 9.26135 7.07892 13.0879 11.4885C14.2174 12.7889 12.7916 13.9579 12.7916 13.9579C12.7916 13.9579 15.6583 12.4784 14.342 10.6247C13.1122 8.89692 12.1695 8.03855 17.2734 5.07848ZM19.148 20.293C19.148 20.293 19.8097 20.8386 18.419 21.2603C15.7749 22.0613 7.41166 22.3028 5.08872 21.2924C4.25435 20.929 5.81979 20.4252 6.31235 20.3189C6.82591 20.2077 7.11916 20.2279 7.11916 20.2279C6.19066 19.5741 1.11672 21.5123 4.54254 22.0682C13.884 23.5825 21.5707 21.3863 19.148 20.293ZM15.9375 14.6055C16.3865 14.2992 17.0068 14.0331 17.0068 14.0331C17.0068 14.0331 15.2398 14.349 13.4794 14.497C11.3242 14.6777 9.01254 14.7134 7.8521 14.5581C5.10485 14.1908 9.35829 13.1804 9.35829 13.1804C9.35829 13.1804 7.70604 13.0686 5.67504 14.0511C3.27279 15.2127 11.6171 15.7422 15.9375 14.6055ZM16.9892 17.4452C16.9689 17.4996 16.9014 17.5607 16.9014 17.5607C22.7651 16.0193 20.6092 12.1272 17.8055 13.1123C17.5595 13.1993 17.4305 13.4016 17.4305 13.4016C17.4305 13.4016 17.586 13.339 17.9327 13.2666C19.35 12.9713 21.3806 15.1639 16.9892 17.4452ZM12.0339 13.138C11.1688 11.1825 8.23516 9.4718 12.0352 6.47067C16.7735 2.73061 14.3422 0.297607 14.3422 0.297607C15.3228 4.16161 10.8827 5.3288 9.27991 7.73517C8.18848 9.37486 9.8156 11.1368 12.0339 13.138ZM17.1478 22.8407C13.5502 23.518 9.11266 23.439 6.48148 23.0046C6.48148 23.0046 7.02035 23.4509 9.7901 23.6292C14.0043 23.8986 20.4776 23.4792 20.6306 21.4849C20.6308 21.4849 20.3362 22.2409 17.1478 22.8407Z" fill="#EA2D2E"/>
</svg>
