<?xml version="1.0" encoding="UTF-8"?>
<svg version="1.1" xmlns="http://www.w3.org/2000/svg" width="512" height="512">
<path d="M0 0 C1.04670868 -0.00979385 2.09341736 -0.01958771 3.17184448 -0.02967834 C46.51652857 -0.3519608 46.51652857 -0.3519608 66.9140625 4.23828125 C68.36208252 4.54378906 68.36208252 4.54378906 69.83935547 4.85546875 C101.21166518 11.59482121 131.45913313 26.42127526 155.9140625 47.23828125 C156.84863281 48.01558594 157.78320312 48.79289062 158.74609375 49.59375 C159.66777344 50.38394531 160.58945312 51.17414063 161.5390625 51.98828125 C162.37695312 52.705 163.21484375 53.42171875 164.078125 54.16015625 C165.9140625 56.23828125 165.9140625 56.23828125 165.9140625 60.23828125 C164.76953125 62.40234375 164.76953125 62.40234375 163.1015625 64.86328125 C159.60674821 70.14864854 156.26873096 75.51170942 152.9765625 80.92578125 C152.47987061 81.74062988 151.98317871 82.55547852 151.47143555 83.39501953 C150.28467881 85.3421881 149.09890076 87.28994493 147.9140625 89.23828125 C144.73452927 88.62903201 142.72483342 87.58994055 140.1484375 85.6484375 C139.07396362 84.85070923 139.07396362 84.85070923 137.9777832 84.03686523 C137.21425537 83.46395752 136.45072754 82.8910498 135.6640625 82.30078125 C107.30924746 61.49776542 77.01433029 46.3142036 41.9140625 41.23828125 C41.2334375 41.13660645 40.5528125 41.03493164 39.8515625 40.93017578 C-7.59949683 34.71053927 -58.88758553 47.31230064 -97.2578125 76.03515625 C-112.95894424 88.26642462 -127.65597053 101.85801169 -139.0859375 118.23828125 C-139.818125 119.28757812 -140.5503125 120.336875 -141.3046875 121.41796875 C-170.7109642 165.42384058 -181.15706032 217.95666848 -171.41186523 269.98095703 C-163.79203513 308.11216039 -147.56319488 341.46179922 -120.54541016 369.71142578 C-119.56085323 370.741439 -118.5814561 371.77640584 -117.60693359 372.81591797 C-105.13503053 386.08673297 -90.70241003 396.91819969 -75.0859375 406.23828125 C-73.38824219 407.25148438 -73.38824219 407.25148438 -71.65625 408.28515625 C-29.79921808 432.33426084 25.6939431 436.16634396 71.9140625 424.23828125 C121.54269108 410.61159708 161.22557492 376.93947871 186.56445312 332.67871094 C200.45692483 307.55766405 210.04171697 279.06893278 210.08203125 250.12109375 C210.08535965 249.26506561 210.08868805 248.40903748 210.09211731 247.52706909 C210.09715492 245.72019991 210.09952662 243.91332151 210.09936523 242.10644531 C210.10152874 239.40543294 210.11965466 236.70484534 210.13867188 234.00390625 C210.17425073 222.61319803 209.43653961 211.52617667 207.9140625 200.23828125 C213.44994783 200.2136335 218.9858015 200.19544629 224.52172852 200.18334961 C226.4064998 200.17830881 228.29126715 200.17147627 230.17602539 200.1628418 C232.87907886 200.15076508 235.58208081 200.14505057 238.28515625 200.140625 C239.13307236 200.13546371 239.98098846 200.13030243 240.854599 200.12498474 C242.87477318 200.1247893 244.89484184 200.17621914 246.9140625 200.23828125 C252.80333992 206.12755867 250.22569963 227.64983186 250.23632812 235.39257812 C250.23415283 236.46886475 250.23197754 237.54515137 250.22973633 238.65405273 C250.22658443 241.90317644 250.25009407 245.15137916 250.27539062 248.40039062 C250.32765755 265.53605652 248.79666102 282.27143541 244.6015625 298.92578125 C244.38991455 299.78405518 244.1782666 300.6423291 243.96020508 301.52661133 C235.88523514 333.40056506 221.12744057 363.07376767 199.9140625 388.23828125 C199.4588623 388.78226562 199.00366211 389.32625 198.53466797 389.88671875 C190.23670589 399.78699002 181.86400722 408.86383848 171.74609375 416.9609375 C169.93007026 418.42127087 168.1335687 419.90642219 166.36328125 421.421875 C133.78410998 449.15619228 91.81854312 464.33272566 49.9140625 470.23828125 C48.70685547 470.41335205 47.49964844 470.58842285 46.25585938 470.76879883 C41.34501742 471.37165408 36.45470004 471.4362829 31.51171875 471.4765625 C30.52466949 471.48631104 29.53762024 471.49605957 28.5206604 471.50610352 C-11.92322115 471.82361861 -11.92322115 471.82361861 -31.0859375 467.23828125 C-31.90545898 467.0563623 -32.72498047 466.87444336 -33.56933594 466.68701172 C-71.86667856 458.13317412 -106.97894238 439.15229421 -135.640625 412.49609375 C-137.74476141 410.55329688 -139.89176696 408.70212053 -142.0859375 406.86328125 C-184.43021134 369.86594219 -210.82822645 309.57172487 -215.0859375 254.23828125 C-215.24178643 250.72901142 -215.29505363 247.22334799 -215.32421875 243.7109375 C-215.3340126 242.73236786 -215.34380646 241.75379822 -215.35389709 240.74557495 C-215.51928007 219.94725089 -215.63439566 199.64057377 -211.0859375 179.23828125 C-210.87163086 178.24731445 -210.65732422 177.25634766 -210.43652344 176.23535156 C-206.04148034 156.44806147 -198.61627054 138.08021174 -189.0859375 120.23828125 C-188.73418457 119.57344727 -188.38243164 118.90861328 -188.02001953 118.22363281 C-178.64095276 100.61206384 -166.8076104 84.73154443 -153.0859375 70.23828125 C-152.4966748 69.61501953 -151.90741211 68.99175781 -151.30029297 68.34960938 C-141.29792523 57.85841344 -130.90248078 48.62848766 -119.0859375 40.23828125 C-118.48136719 39.79967773 -117.87679687 39.36107422 -117.25390625 38.90917969 C-99.85608474 26.34301481 -80.36188609 17.10580788 -60.0859375 10.23828125 C-59.36277344 9.98997559 -58.63960937 9.74166992 -57.89453125 9.48583984 C-39.38613356 3.24574221 -19.50533213 0.15030221 0 0 Z " fill="#43BFED" transform="translate(239.0859375,19.76171875)"/>
<path d="M0 0 C6.82463948 6.01825035 12.76876481 12.28115186 18.45898438 19.40112305 C19.90646561 21.18904402 21.38903091 22.94970519 22.91992188 24.66674805 C35.40904034 38.8948577 43.57669891 56.5112135 49.76757812 74.25268555 C50.01588379 74.95780273 50.26418945 75.66291992 50.52001953 76.3894043 C52.20184829 81.28453996 53.57136907 86.2178003 54.76757812 91.25268555 C55.06172607 92.47858398 55.06172607 92.47858398 55.36181641 93.72924805 C60.89150442 117.96402137 61.85126223 146.99077408 55.76757812 171.25268555 C55.58485352 172.0214502 55.40212891 172.79021484 55.21386719 173.58227539 C49.09031467 198.62448809 36.47795216 220.81983484 19.76757812 240.25268555 C19.16171875 240.98100586 18.55585938 241.70932617 17.93164062 242.4597168 C14.50705396 246.51188608 10.88622497 250.07243394 6.83007812 253.4909668 C5.48556321 254.63940662 4.17054799 255.82359562 2.89257812 257.0456543 C-25.86283901 284.28467248 -67.21134739 298.03701465 -106.37426758 297.60400391 C-149.59974326 296.21866482 -190.79480759 280.27159536 -220.74023438 248.6003418 C-231.33518042 236.37126 -236.80249423 223.31816774 -236.54492188 207.1394043 C-235.75478919 197.31212908 -232.41554113 188.89508112 -226.23242188 181.25268555 C-225.75417969 180.6390918 -225.2759375 180.02549805 -224.78320312 179.39331055 C-218.48551649 172.22314844 -206.81454179 166.12820919 -197.23242188 165.25268555 C-177.25123411 164.09869182 -162.12746221 171.06203498 -145.10742188 180.81518555 C-126.5579904 191.42917753 -107.07682738 199.4006048 -85.35742188 194.12768555 C-70.00057593 189.07950578 -59.41237325 180.82544002 -51.79101562 166.5534668 C-45.82188293 154.06283391 -43.14825379 140.69552437 -44.64648438 126.8815918 C-44.71963867 126.16898193 -44.79279297 125.45637207 -44.86816406 124.72216797 C-45.09510795 122.73548263 -45.37707447 120.75530906 -45.66210938 118.77612305 C-45.20398832 115.01953038 -45.01814679 114.55672904 -42.38476562 112.15893555 C-37.85161999 108.75280878 -32.90966394 106.04855839 -27.91992188 103.37768555 C-27.01435547 102.88010742 -26.10878906 102.3825293 -25.17578125 101.86987305 C-18.51280263 98.25268555 -18.51280263 98.25268555 -16.23242188 98.25268555 C-15.4153602 101.29314535 -14.60460167 104.33525237 -13.79492188 107.37768555 C-13.56482422 108.23362305 -13.33472656 109.08956055 -13.09765625 109.97143555 C-6.40583617 135.18698946 -9.7426787 161.75906133 -22.08007812 184.6862793 C-35.13465969 206.72075195 -54.5941602 222.38046353 -79.51953125 228.84594727 C-109.78713148 235.62651878 -135.17209858 224.95802105 -160.65771484 209.75927734 C-175.57569435 200.08317916 -175.57569435 200.08317916 -192.52539062 197.63549805 C-198.19046235 199.8548045 -200.87862317 202.41615493 -203.54492188 208.00268555 C-204.61529669 213.06263923 -204.60417975 217.56676268 -202.20898438 222.2565918 C-188.7593741 241.49808627 -163.31197294 254.20371366 -141.23242188 260.25268555 C-140.21510986 260.5468335 -140.21510986 260.5468335 -139.17724609 260.84692383 C-116.72434233 267.1234727 -89.57557102 266.7130354 -67.23242188 260.25268555 C-66.56839355 260.0707666 -65.90436523 259.88884766 -65.22021484 259.70141602 C-32.45150044 250.56861616 -5.22279597 227.33498481 11.76757812 198.25268555 C22.93088363 178.21159126 28.21534236 156.43058555 28.20507812 133.56518555 C28.20581329 132.84780212 28.20654846 132.1304187 28.20730591 131.39129639 C28.09689084 90.04571578 11.143382 54.67042233 -17.68945312 25.79174805 C-40.70005031 4.04043728 -71.90354353 -7.40704158 -103.23242188 -8.74731445 C-104.4003125 -8.80918945 -104.4003125 -8.80918945 -105.59179688 -8.87231445 C-138.01810671 -9.76683335 -170.4654028 1.47816408 -195.23242188 22.25268555 C-196.05226563 22.92041992 -196.87210937 23.5881543 -197.71679688 24.27612305 C-203.68199605 29.31568787 -208.47182989 35.08439163 -213.23242188 41.25268555 C-213.88984375 42.07124023 -214.54726562 42.88979492 -215.22460938 43.7331543 C-225.61215589 57.1869043 -232.93167676 72.85609481 -237.23242188 89.25268555 C-237.44125 90.03820801 -237.65007812 90.82373047 -237.86523438 91.63305664 C-242.32196059 109.28014108 -241.64581464 127.20014162 -241.23242188 145.25268555 C-245.34414747 145.277343 -249.45584465 145.29552513 -253.56762695 145.30761719 C-254.96737416 145.31265634 -256.36711608 145.31948771 -257.7668457 145.328125 C-259.77487964 145.34020874 -261.78295145 145.34538361 -263.79101562 145.3503418 C-265.60557251 145.35819702 -265.60557251 145.35819702 -267.45678711 145.36621094 C-270.23242188 145.25268555 -270.23242188 145.25268555 -271.23242188 144.25268555 C-277.68913449 101.60649731 -264.20819724 59.4498287 -239.22460938 25.17456055 C-235.89290919 20.72514252 -232.28956284 16.63156961 -228.45898438 12.6003418 C-226.47223826 10.50554458 -224.63220929 8.35245775 -222.79492188 6.12768555 C-218.48960719 1.1871605 -213.40445486 -2.75425235 -208.23242188 -6.74731445 C-207.35457031 -7.42922852 -206.47671875 -8.11114258 -205.57226562 -8.8137207 C-143.98231383 -55.16492154 -57.36819326 -49.85383389 0 0 Z " fill="#4D4F51" transform="translate(365.232421875,124.747314453125)"/>
<path d="M0 0 C0.81706167 3.0404598 1.6278202 6.08256683 2.4375 9.125 C2.78264648 10.40890625 2.78264648 10.40890625 3.13476562 11.71875 C9.8265857 36.93430391 6.48974318 63.50637578 -5.84765625 86.43359375 C-18.90223781 108.46806641 -38.36173833 124.12777798 -63.28710938 130.59326172 C-93.5547096 137.37383323 -118.9396767 126.7053355 -144.42529297 111.5065918 C-159.34327248 101.83049361 -159.34327248 101.83049361 -176.29296875 99.3828125 C-181.95804047 101.60211895 -184.6462013 104.16346938 -187.3125 109.75 C-188.64973434 116.07147144 -187.86302203 121.06414788 -184.4375 126.5625 C-183.64123688 127.71967558 -182.83440217 128.87001624 -182 130 C-182.804375 130.5775 -183.60875 131.155 -184.4375 131.75 C-191.30444065 137.442547 -196.12811295 145.60399047 -201 153 C-212.71681163 141.99329816 -219.86022466 129.03622615 -220.375 112.8125 C-220.19476788 101.49167019 -217.1398185 91.82488515 -210 83 C-209.52175781 82.38640625 -209.04351562 81.7728125 -208.55078125 81.140625 C-202.25309462 73.97046289 -190.58211992 67.87552365 -181 67 C-161.01881224 65.84600627 -145.89504034 72.80934944 -128.875 82.5625 C-110.32556852 93.17649198 -90.84440551 101.14791926 -69.125 95.875 C-53.76815406 90.82682023 -43.17995137 82.57275447 -35.55859375 68.30078125 C-29.58946106 55.81014836 -26.91583192 42.44283882 -28.4140625 28.62890625 C-28.4872168 27.91629639 -28.56037109 27.20368652 -28.63574219 26.46948242 C-28.86268608 24.48279709 -29.1446526 22.50262351 -29.4296875 20.5234375 C-28.97156644 16.76684484 -28.78572491 16.30404349 -26.15234375 13.90625 C-21.61919812 10.50012323 -16.67724206 7.79587284 -11.6875 5.125 C-10.78193359 4.62742188 -9.87636719 4.12984375 -8.94335938 3.6171875 C-2.28038075 0 -2.28038075 0 0 0 Z " fill="#43BFED" transform="translate(349,223)"/>
<path d="M0 0 C15.25675418 12.10711679 15.25675418 12.10711679 16.34765625 17.6953125 C12.43575192 20.01594128 8.51736163 22.32538868 4.59765625 24.6328125 C3.48648438 25.29216797 2.3753125 25.95152344 1.23046875 26.63085938 C-0.37441406 27.57348633 -0.37441406 27.57348633 -2.01171875 28.53515625 C-2.99624023 29.11644287 -3.98076172 29.69772949 -4.99511719 30.29663086 C-7.29878474 31.50921001 -9.08097045 32.37270348 -11.65234375 32.6953125 C-13.84375 31.4375 -13.84375 31.4375 -16.21484375 29.5703125 C-31.97108896 18.0065185 -51.02706301 15.40738831 -70.09375 18.19921875 C-72.73057752 18.85561251 -75.14259925 19.6586789 -77.65234375 20.6953125 C-78.90144531 21.18837891 -78.90144531 21.18837891 -80.17578125 21.69140625 C-94.60940592 28.10881783 -101.67754506 39.52854095 -107.57421875 53.54296875 C-110.17386481 61.14410777 -111.10023236 68.78232835 -111.77734375 76.7578125 C-111.86371094 77.71880859 -111.95007813 78.67980469 -112.0390625 79.66992188 C-112.24873878 82.01130698 -112.45306815 84.35302328 -112.65234375 86.6953125 C-119.66901917 88.4366772 -126.51382108 89.2660382 -133.71484375 89.8203125 C-134.77123047 89.90667969 -135.82761719 89.99304688 -136.91601562 90.08203125 C-139.49439685 90.29203515 -142.07309164 90.49634254 -144.65234375 90.6953125 C-150.839181 78.32163799 -144.03065266 53.76413863 -140.02734375 41.3828125 C-135.02086819 26.99097821 -127.51132205 15.30643966 -116.65234375 4.6953125 C-115.46705078 3.47908203 -115.46705078 3.47908203 -114.2578125 2.23828125 C-84.13417129 -27.08605936 -31.99619128 -24.49354032 0 0 Z " fill="#43BFED" transform="translate(307.65234375,167.3046875)"/>
<path d="M0 0 C9.2412199 6.43438402 14.98081473 15.94496065 17 27 C18.19785417 38.59589382 14.96937027 48.7075063 8 58 C0.62200993 66.05882155 -7.64646829 70.50869065 -18.56640625 71.23828125 C-30.96099159 71.46848371 -41.59922969 69.79164912 -51 61 C-59.18924862 53.04617125 -63.0413365 44.41741054 -63.3125 33 C-63.18586771 21.80570532 -60.07840769 11.9385891 -52 4 C-36.79049953 -9.46897664 -16.99525437 -10.32345015 0 0 Z " fill="#43BFED" transform="translate(470,116)"/>
</svg>
